<svg width="33" height="30" viewBox="0 0 33 30" fill="none" xmlns="http://www.w3.org/2000/svg">
<path d="M1.59445 20.1836L15.9324 20.1837L13.1144 23.0017C12.7077 23.4084 12.7077 24.0681 13.1144 24.4748C13.521 24.8815 14.1808 24.8815 14.5875 24.4748L18.0346 21.0277C19.0748 19.9875 19.0748 18.2967 18.0346 17.2565L14.5874 13.8093C14.1808 13.4026 13.521 13.4026 13.1143 13.8093C12.7076 14.216 12.7076 14.8758 13.1143 15.2825L15.9323 18.1005L1.59445 18.1004C1.30745 18.1004 1.04609 18.2172 0.857883 18.4054C0.669673 18.5936 0.552867 18.855 0.55287 19.142C0.552873 19.7177 1.01879 20.1836 1.59445 20.1836Z" fill="#8C8C8C" stroke="#8C8C8C"/>
<path fill-rule="evenodd" clip-rule="evenodd" d="M16.4821 3.75H24.5179V1.40625C24.5179 0.629883 25.115 0 25.8571 0C26.5993 0 27.1964 0.629883 27.1964 1.40625V3.75H29.4286C31.4012 3.75 33 5.42871 33 7.5V26.25C33 28.3184 31.4012 30 29.4286 30H11.5714C9.60156 30 8 28.3184 8 26.25V22.2857H10.6786V26.25C10.6786 26.7656 11.0804 27.1875 11.5714 27.1875H29.4286C29.9219 27.1875 30.3214 26.7656 30.3214 26.25V11.25H10.6786V15.4286H8V7.5C8 5.42871 9.60156 3.75 11.5714 3.75H13.8036V1.40625C13.8036 0.629883 14.4007 0 15.1429 0C15.885 0 16.4821 0.629883 16.4821 1.40625V3.75Z" fill="#8C8C8C"/>
</svg>
