<svg width="34" height="30" viewBox="0 0 34 30" fill="none" xmlns="http://www.w3.org/2000/svg">
<path d="M15.6656 20.1836L30.0035 20.1837L27.1855 23.0017C26.7788 23.4084 26.7788 24.0682 27.1855 24.4749C27.5922 24.8815 28.252 24.8816 28.6587 24.4749L32.1058 21.0278C33.146 19.9876 33.146 18.2967 32.1058 17.2565L28.6586 13.8094C28.2519 13.4027 27.5922 13.4027 27.1855 13.8094C26.7788 14.2161 26.7788 14.8758 27.1855 15.2825L30.0035 18.1006L15.6656 18.1005C15.3786 18.1005 15.1173 18.2173 14.929 18.4055C14.7408 18.5937 14.624 18.8551 14.624 19.1421C14.624 19.7177 15.09 20.1836 15.6656 20.1836Z" fill="#8C8C8C" stroke="#8C8C8C"/>
<path fill-rule="evenodd" clip-rule="evenodd" d="M16.5179 3.75H8.48214V1.40625C8.48214 0.629883 7.88504 0 7.14286 0C6.40067 0 5.80357 0.629883 5.80357 1.40625V3.75H3.57143C1.59877 3.75 0 5.42871 0 7.5V26.25C0 28.3184 1.59877 30 3.57143 30H21.4286C23.3984 30 25 28.3184 25 26.25V22.2857H22.3214V26.25C22.3214 26.7656 21.9196 27.1875 21.4286 27.1875H3.57143C3.07812 27.1875 2.67857 26.7656 2.67857 26.25V11.25H22.3214V15.4286H25V7.5C25 5.42871 23.3984 3.75 21.4286 3.75H19.1964V1.40625C19.1964 0.629883 18.5993 0 17.8571 0C17.115 0 16.5179 0.629883 16.5179 1.40625V3.75Z" fill="#8C8C8C"/>
</svg>
